<svg xmlns="http://www.w3.org/2000/svg" version="1.1" xmlns:xlink="http://www.w3.org/1999/xlink" width="200" height="200"><svg xmlns="http://www.w3.org/2000/svg" version="1.1" xmlns:xlink="http://www.w3.org/1999/xlink" viewBox="0 0 200 200"><rect width="200" height="200" fill="url('#gradient')"></rect><defs><linearGradient id="SvgjsLinearGradient1001" gradientTransform="rotate(45 0.5 0.5)"><stop offset="0%" stop-color="#4a5e75"></stop><stop offset="100%" stop-color="#2a7fb9"></stop></linearGradient></defs><g><g fill="#de2d24" transform="matrix(2.2844394868934748,0,0,2.2844394868934748,-0.4853306141268021,112.5059382682796)" stroke="#ec7313" stroke-width="0.85"><path d="M8.39-10.57L10.05-4.34L11.11-10.57L14.27-10.57L11.78 0L8.99 0L7.25-6.27L5.49 0L2.71 0L0.21-10.57L3.37-10.57L4.41-4.19L6.09-10.57L8.39-10.57ZM15.04-4.82L15.03-5.38Q15.03-6.96 15.64-8.20Q16.26-9.43 17.41-10.10Q18.56-10.76 20.12-10.76L20.12-10.76Q22.49-10.76 23.86-9.29Q25.22-7.82 25.22-5.29L25.22-5.29L25.22-5.18Q25.22-2.71 23.85-1.25Q22.48 0.20 20.14 0.20L20.14 0.20Q17.88 0.20 16.51-1.16Q15.15-2.51 15.04-4.82L15.04-4.82ZM18.33-5.77L18.32-5.18Q18.32-3.71 18.78-3.03Q19.24-2.34 20.14-2.34L20.14-2.34Q21.89-2.34 21.93-5.05L21.93-5.05L21.93-5.38Q21.93-8.22 20.12-8.22L20.12-8.22Q18.47-8.22 18.33-5.77L18.33-5.77ZM33.13-10.64L33.07-7.59L31.98-7.67Q30.43-7.67 29.99-6.69L29.99-6.69L29.99 0L26.70 0L26.70-10.57L29.79-10.57L29.89-9.21Q30.72-10.76 32.21-10.76L32.21-10.76Q32.73-10.76 33.13-10.64L33.13-10.64ZM40.80 0L38.50-3.94L37.57-3.01L37.57 0L34.28 0L34.28-15.01L37.57-15.01L37.57-7.04L37.90-7.48L40.38-10.57L44.33-10.57L40.63-6.22L44.57 0L40.80 0ZM50.72-2.97L50.72-2.97Q50.72-3.39 50.28-3.64Q49.84-3.90 48.61-4.17Q47.38-4.44 46.58-4.89Q45.78-5.33 45.36-5.97Q44.94-6.60 44.94-7.42L44.94-7.42Q44.94-8.88 46.14-9.82Q47.34-10.76 49.29-10.76L49.29-10.76Q51.38-10.76 52.65-9.81Q53.92-8.87 53.92-7.32L53.92-7.32L50.62-7.32Q50.62-8.59 49.28-8.59L49.28-8.59Q48.76-8.59 48.41-8.31Q48.06-8.02 48.06-7.59L48.06-7.59Q48.06-7.15 48.49-6.88Q48.92-6.60 49.86-6.43Q50.80-6.25 51.51-6.01L51.51-6.01Q53.90-5.19 53.90-3.07L53.90-3.07Q53.90-1.62 52.61-0.71Q51.33 0.20 49.29 0.20L49.29 0.20Q47.93 0.20 46.87-0.29Q45.80-0.78 45.21-1.62Q44.61-2.46 44.61-3.39L44.61-3.39L47.69-3.39Q47.71-2.66 48.17-2.32Q48.64-1.98 49.38-1.98L49.38-1.98Q50.05-1.98 50.39-2.26Q50.72-2.53 50.72-2.97ZM58.65-15L58.65-9.43Q59.71-10.76 61.35-10.76L61.35-10.76Q63.10-10.76 63.98-9.73Q64.87-8.69 64.89-6.67L64.89-6.67L64.89 0L61.59 0L61.59-6.59Q61.59-7.43 61.25-7.83Q60.91-8.22 60.09-8.22L60.09-8.22Q59.07-8.22 58.65-7.58L58.65-7.58L58.65 0L55.36 0L55.36-15L58.65-15ZM66.32-4.82L66.31-5.38Q66.31-6.96 66.92-8.20Q67.54-9.43 68.69-10.10Q69.84-10.76 71.40-10.76L71.40-10.76Q73.77-10.76 75.14-9.29Q76.50-7.82 76.50-5.29L76.50-5.29L76.50-5.18Q76.50-2.71 75.13-1.25Q73.76 0.20 71.42 0.20L71.42 0.20Q69.16 0.20 67.79-1.16Q66.43-2.51 66.32-4.82L66.32-4.82ZM69.61-5.77L69.60-5.18Q69.60-3.71 70.06-3.03Q70.52-2.34 71.42-2.34L71.42-2.34Q73.17-2.34 73.21-5.05L73.21-5.05L73.21-5.38Q73.21-8.22 71.40-8.22L71.40-8.22Q69.75-8.22 69.61-5.77L69.61-5.77ZM87.76-5.36L87.76-5.21Q87.76-2.74 86.66-1.27Q85.55 0.20 83.66 0.20L83.66 0.20Q82.21 0.20 81.27-0.87L81.27-0.87L81.27 4.06L77.98 4.06L77.98-10.57L81.05-10.57L81.15-9.59Q82.10-10.76 83.64-10.76L83.64-10.76Q85.60-10.76 86.68-9.32Q87.76-7.88 87.76-5.36L87.76-5.36ZM84.47-5.06L84.47-5.41Q84.47-8.22 82.83-8.22L82.83-8.22Q81.66-8.22 81.27-7.38L81.27-7.38L81.27-3.22Q81.70-2.34 82.85-2.34L82.85-2.34Q84.42-2.34 84.47-5.06L84.47-5.06Z"></path></g></g></svg><style>@media (prefers-color-scheme: light) { :root { filter: none; } }
@media (prefers-color-scheme: dark) { :root { filter: none; } }
</style></svg>